#!OML:ASF F:\VICON\USERDATA\INSTALL\rory3\rory3.ASF
:FULLY-SPECIFIED
:DEGREES
65
root 5.0759147143224865 17.613310624534133 31.11469396923704 -1.4629277192790757 -0.13884803601263584 2.144203678425989
lfemur 11.816898364672626 -2.219555843913263 -27.8529126612533
ltibia 11.808076933002283
lfoot -8.93096682875326 -3.4585323833599544
ltoes -1.7875904058988232
rfemur -27.472764715907736 6.989883281120481 17.66820829908083
rtibia 17.54102110918517
rfoot -12.48284749286792 -15.141660593208982
rtoes -17.438139528924467
lowerback 1.0 -1.2635642864497965 -3.7610312998624
upperback 0.7755194479298071 -1.9296519498080706 1.3564876307250655
thorax -5.245035435187994 -0.9324532096864153 3.67765529894808
lowerneck -17.990076121677586 -2.636884662158732 -2.5270725557365727
upperneck 17.17131682549554 -2.999639188977347 1.3668239460531837
head 8.016273885435139 -1.3811542190132307 0.7061635963751303
lclavicle 2.1880652929110026e-15 1.2163252386047073e-15
lhumerus -26.376550351199313 -4.391954555932761 82.3253740677174
lradius 31.603727946742673
lwrist 7.58498534074637
lhand -27.17863192408338 22.83515656683975
lfingers nan
lthumb -0.6204342807826434 52.91708715794454
rclavicle 1.4446883370207908e-15 1.725737434636205e-16
rhumerus -32.74430414646837 -15.926338616496732 -81.08904197034023
rradius 24.760868431732526
rwrist 6.429840942691393
rhand -17.458683813046477 1.0
rfingers nan
rthumb 8.410670965851093 -8.483044183282107
66
root 4.993934836210956 17.546704121200722 31.3587353660679 -1.5518174980819364 -0.10884830660099531 2.045066107150658
lfemur 13.51869414230592 -2.8133038088269684 -26.890972482301763
ltibia 14.935544930309817
lfoot -8.792540363850348 -2.257097870850414
ltoes -7.159265965593775
rfemur -27.93669247086406 5.22196680709787 19.541442821957563
rtibia 17.23079805629433
rfoot -11.788206350113295 -12.092524239399634
rtoes -14.617709305477296
lowerback 1.0 -1.2353734498984694 -3.445601752390523
upperback 0.6967058714468882 -2.046172272472758 1.5004410290711967
thorax -5.438260018430803 -0.9530113978733368 3.8792194064731245
lowerneck -18.05809433065267 -2.656003330491729 -2.5583615731781153
upperneck 17.341315249580852 -2.9242680481441754 1.307568637687225
head 8.212016507777 -1.3379414334110604 0.6232504042344963
lclavicle -1.3744028847035487e-15 -7.827242286910319e-16
lhumerus -25.983078537467826 -4.625490808572784 82.22575137373575
lradius 32.99980150168777
lwrist 7.456802165635546
lhand -25.934510650957442 25.176214364176158
lfingers nan
lthumb 0.6294894688336838 55.30143719051232
rclavicle 4.316476809905114e-16 -8.292772296683209e-16
rhumerus -33.11432955738917 -17.65689773024152 -80.19182606754504
rradius 23.536257011233104
rwrist 8.080425426051104
rhand -17.43137066106321 1.0
rfingers nan
rthumb 8.382995339327863 -8.036648194389482
67
root 4.916127841180099 17.51754213374616 32.096532254279786 -1.7661200869543667 -0.17215504102338341 1.378171670825552
lfemur 13.680293535212316 -3.9945880408586785 -26.73636244915612
ltibia 16.82762223312818
lfoot -7.935542940768931 -2.3152040315535505
ltoes -10.940287207639049
rfemur -27.7091139912817 5.039734140612092 20.33985386199132
rtibia 22.274951844708
rfoot -9.264706088206271 -9.919808095686669
rtoes -9.166705086671914
lowerback 1.0 -1.2435856973266728 -3.3588583235564986
upperback 0.6945520220749948 -2.1183724212875976 1.5796603278074806
thorax -4.6746699026833385 -0.9995595071712164 4.016071771229997
lowerneck -18.69378592904637 -2.5927120417669802 -2.5784691693814725
upperneck 17.67171721299605 -2.764652860906367 0.9317012307800586
head 7.875954224671963 -1.3017253610510189 0.36074076363232976
lclavicle 1.8574400379081176e-15 3.634609130208273e-16
lhumerus -25.7886358020814 -4.648155180499458 82.19888739513436
lradius 34.01385683099858
lwrist 7.77465500317469
lhand -26.529850315413075 24.381453469056197
lfingers nan
lthumb 0.12228840379804129 54.51138667655123
rclavicle -5.21261739562883e-16 -1.2742829389838077e-15
rhumerus -33.67239036627305 -19.367902489682535 -78.9471152125566
rradius 22.452813442402302
rwrist 7.4203777467099705
rhand -17.750890509370457 1.0
rfingers nan
rthumb 8.673084535215644 -7.214875512386139
68
root 4.855003377712379 17.529865953112427 33.42514304319475 -2.031361300422857 -0.2841471703794387 0.5792778912878087
lfemur 13.851254456989894 -5.957017452591577 -24.90595841099521
ltibia 23.46165809792658
lfoot -7.2292081909596115 -4.153074328332176
ltoes -13.46063997575977
rfemur -25.548897448024377 6.2754159617589 22.116220192622652
rtibia 27.278365314214444
rfoot -6.453640703032181 -8.747719905140345
rtoes -3.332319484731853
lowerback 1.0 -1.3166963280748225 -1.5863240843852715
upperback 0.43327587087744757 -2.055566237958841 1.9602295337884368
thorax -4.616558779741911 -0.9604544368755055 3.743261723458386
lowerneck -18.22141849543431 -2.5032038237646157 -2.4006722052589473
upperneck 17.715551403175137 -2.537812260918993 0.7575991894018177
head 7.750005236142273 -1.2301247293530186 0.170320546642384
lclavicle 7.87471213767997e-17 -1.0492859486653618e-15
lhumerus -25.987807029478134 -4.513169543147692 82.43676001891528
lradius 34.19691539459881
lwrist 7.401518990925629
lhand -26.26523044944363 24.80798578857386
lfingers nan
lthumb -0.08137723238876104 53.84562008289103
rclavicle 4.651735047049266e-16 -1.4217800217261557e-15
rhumerus -34.56781403347786 -21.550968161995083 -77.24295213325274
rradius 21.118770105609546
rwrist 9.046632143706677
rhand -17.756830754952983 1.0
rfingers nan
rthumb 8.712982217941558 -7.590310006014117
69
root 4.780413380410592 17.583051416272365 33.49536418459583 -2.550610031907289 -0.3830348994259436 -0.43402412633650034
lfemur 11.163867537681105 -5.555042764031365 -22.68445281397709
ltibia 33.007638393967085
lfoot -1.9438793262252845 -6.224650724875421
ltoes -16.01945744606234
rfemur -22.71204115910571 6.036771529635025 24.068519873876784
rtibia 30.930621883715162
rfoot -3.57830993928735 -5.978582488405519
rtoes 1.2266338282191405
lowerback 1.0 -1.2110929777567334 -0.013582148036219044
upperback 0.3122630508040686 -1.9572914054042752 2.1916338127447372
thorax -4.622143827134263 -0.862754919434348 3.469020537490173
lowerneck -18.196776344042075 -2.422754373275821 -2.1826399197836697
upperneck 17.46262988623828 -2.4035274169526692 0.7425121026202093
head 7.576285091539973 -1.173199070031049 0.1587502200838798
lclavicle -3.4989272638544374e-15 -4.116474165304143e-15
lhumerus -25.93288662578167 -3.3943820426249642 82.56701288179187
lradius 34.34350279768567
lwrist 6.52777128123354
lhand -26.868703200015364 23.347169175680246
lfingers nan
lthumb -0.502799297766874 52.59823632453163
rclavicle 1.2340391411044885e-15 -2.0478816774227892e-15
rhumerus -34.07050603228395 -23.878059485261733 -75.83003555322972
rradius 19.29897758721775
rwrist 11.381795889488249
rhand -17.597703237205625 1.0
rfingers nan
rthumb 8.94859727619652 -7.604662640855646
70
root 4.720131314727006 17.6556756369569 34.011526955430654 -3.0704510783682246 -0.3392916578562082 -1.665241502273752
lfemur 7.3714128064332325 -3.844112484611281 -20.887501615187205
ltibia 41.54759855312189
lfoot 6.264791474029521 -10.122324507702636
ltoes -10.936799291861995
rfemur -19.57181301731358 5.454359136656586 25.62447161629091
rtibia 33.32557341909214
rfoot -3.8385404032098767 -4.0944246381457035
rtoes 10.999557182207393
lowerback 1.0 -1.200245424222477 0.4735096553415096
upperback 0.21453761213776656 -1.9111690737130207 2.228526811001924
thorax -4.114863499306788 -0.8475908853878631 3.218680592034315
lowerneck -17.9412341839527 -2.326824634221805 -2.1176539888330703
upperneck 17.01604744255877 -2.3978561135420593 0.6648487519674432
head 7.457699395528356 -1.184035315641792 0.12403157269604069
lclavicle -1.2151959143612819e-15 -3.175828745360688e-15
lhumerus -26.600847734680638 -2.683997442999904 82.73526622142704
lradius 34.07422652622406
lwrist 5.361642441744362
lhand -27.085485613507483 23.18796191353482
lfingers nan
lthumb -0.46750977387793796 53.211458102387155
rclavicle 2.6078900841028414e-15 -1.467279148835849e-15
rhumerus -33.716663739743886 -25.329884589894437 -75.01272301902569
rradius 18.462234390370888
rwrist 12.224653345297405
rhand -17.537650040153363 1.0
rfingers nan
rthumb 9.099643817408582 -7.820945079442021
71
root 4.668837540926983 17.730531574753126 34.502121473760184 -3.531374399297545 -0.44399392575031826 -2.813331794881498
lfemur 2.150198312043276 -3.1473773041799067 -18.10005048566963
ltibia 51.56810026879907
lfoot 12.841539599110597 -15.273243207161066
ltoes 1.1158642900127749
rfemur -16.288015954996432 5.827444496567491 27.466137078124245
rtibia 33.674211080184605
rfoot -3.962502247662053 -4.215608274166179
rtoes 12.072533615787735
lowerback 1.0 -1.1420091939248875 1.6415293486546714
upperback 0.14658880437563038 -1.5853524392086564 2.5417451155718456
thorax -3.957988466842036 -0.7137330668446205 2.531111131707905
lowerneck -17.766408846393436 -2.3023698648862054 -1.96440536621092
upperneck 16.750683164327082 -2.5489608891956195 0.5520645133678165
head 7.748567865190457 -1.256454549032677 -0.04436243865663979
lclavicle 2.5349072625863386e-16 -8.308458622477073e-16
lhumerus -27.675532274454262 -2.556964536517911 83.10074519189811
lradius 33.67747562529367
lwrist 4.758000015453519
lhand -26.342679962501723 25.59713350873409
lfingers nan
lthumb 0.023344146930776577 55.076686752570154
rclavicle 3.077260138269842e-16 -2.314613726583014e-15
rhumerus -33.10042205010685 -25.434712710539383 -75.05444179483841
rradius 19.21305912006528
rwrist 9.505851677172013
rhand -17.21079951664113 1.0
rfingers nan
rthumb 9.066150202719177 -8.215118126510294
72
root 4.611554663687507 17.79885851023685 34.02525424909469 -3.9880157395485503 -0.574038914864744 -3.8610076572631664
lfemur -3.7413155251857653 -1.296152475001027 -15.938354373366963
ltibia 60.38960293673325
lfoot 17.26359309609141 -17.040996142942703
ltoes 3.556820665660938
rfemur -13.670683388753076 6.209605461669401 29.01102400023277
rtibia 33.63158063226266
rfoot -5.115961056636816 -5.190225250486176
rtoes 11.651186982233778
lowerback 1.0 -0.5830385073899043 2.4762565829635577
upperback 0.35088616031399256 -0.8458172068138446 2.6031697287100033
thorax -4.229906771635687 -0.3564762202545384 1.9486377199926315
lowerneck -17.169237523272812 -2.3401073892569104 -1.7484672678037594
upperneck 16.86773672149209 -2.7663105586682093 0.9584391689572046
head 8.349642579699804 -1.2877013209606183 0.1518070951161568
lclavicle -2.0200172436936498e-16 -3.986626397102422e-15
lhumerus -28.322920774361478 -2.1371919559233516 83.41254335908849
lradius 33.256544452463906
lwrist 4.251138442198168
lhand -26.859729964118355 23.984827608600153
lfingers nan
lthumb -0.4261267772523727 53.37785025736632
rclavicle 2.6605630507763537e-15 -2.2314870741224988e-15
rhumerus -31.832029953912137 -24.94089935716113 -75.69135635227121
rradius 19.670402696906887
rwrist 7.866418275517995
rhand -16.738821243332133 1.0
rfingers nan
rthumb 9.075790150212283 -9.057058698983703
